HIERARCHY
ROOT Root
{
	OFFSET 0.000000 0.085526 -0.815750
	CHANNELS 6 Xposition Yposition Zposition Xrotation Yrotation Zrotation
	JOINT pelvis
	{
		OFFSET 0.000000 -0.050079 0.832294
		CHANNELS 6 Xposition Yposition Zposition Xrotation Yrotation Zrotation
		JOINT spine_01
		{
			OFFSET 0.000000 0.045650 0.072925
			CHANNELS 6 Xposition Yposition Zposition Xrotation Yrotation Zrotation
			JOINT spine_02
			{
				OFFSET 0.000000 -0.022106 0.063381
				CHANNELS 6 Xposition Yposition Zposition Xrotation Yrotation Zrotation
				JOINT spine_03
				{
					OFFSET 0.000000 -0.012215 0.091100
					CHANNELS 6 Xposition Yposition Zposition Xrotation Yrotation Zrotation
					JOINT clavicle_l
					{
						OFFSET 0.022930 -0.009180 0.229520
						CHANNELS 6 Xposition Yposition Zposition Xrotation Yrotation Zrotation
						JOINT upperarm_l
						{
							OFFSET 0.136760 0.000470 0.015660
							CHANNELS 6 Xposition Yposition Zposition Xrotation Yrotation Zrotation
							JOINT lowerarm_l
							{
								OFFSET 0.234220 0.004524 -0.003130
								CHANNELS 6 Xposition Yposition Zposition Xrotation Yrotation Zrotation
								JOINT hand_l
								{
									OFFSET 0.212680 0.006104 0.000160
									CHANNELS 6 Xposition Yposition Zposition Xrotation Yrotation Zrotation
									JOINT index_01_l
									{
										OFFSET 0.092010 -0.031038 0.000300
										CHANNELS 6 Xposition Yposition Zposition Xrotation Yrotation Zrotation
										JOINT index_02_l
										{
											OFFSET 0.023320 0.000571 -0.003240
											CHANNELS 6 Xposition Yposition Zposition Xrotation Yrotation Zrotation
											JOINT index_03_l
											{
												OFFSET 0.020690 0.001655 -0.002990
												CHANNELS 6 Xposition Yposition Zposition Xrotation Yrotation Zrotation
												End Site
												{
													OFFSET 0.024102 0.001808 -0.006983
												}
											}
										}
									}
									JOINT middle_01_l
									{
										OFFSET 0.092160 -0.008797 0.003860
										CHANNELS 6 Xposition Yposition Zposition Xrotation Yrotation Zrotation
										JOINT middle_02_l
										{
											OFFSET 0.030470 0.001014 -0.005920
											CHANNELS 6 Xposition Yposition Zposition Xrotation Yrotation Zrotation
											JOINT middle_03_l
											{
												OFFSET 0.025050 -0.000982 -0.004310
												CHANNELS 6 Xposition Yposition Zposition Xrotation Yrotation Zrotation
												End Site
												{
													OFFSET 0.023820 -0.000054 -0.007531
												}
											}
										}
									}
									JOINT pinky_01_l
									{
										OFFSET 0.082860 0.024648 -0.002420
										CHANNELS 6 Xposition Yposition Zposition Xrotation Yrotation Zrotation
										JOINT pinky_02_l
										{
											OFFSET 0.019290 0.001559 -0.001660
											CHANNELS 6 Xposition Yposition Zposition Xrotation Yrotation Zrotation
											JOINT pinky_03_l
											{
												OFFSET 0.014370 0.000155 -0.000950
												CHANNELS 6 Xposition Yposition Zposition Xrotation Yrotation Zrotation
												End Site
												{
													OFFSET 0.018070 0.000644 -0.001347
												}
											}
										}
									}
									JOINT ring_01_l
									{
										OFFSET 0.088670 0.009084 0.002840
										CHANNELS 6 Xposition Yposition Zposition Xrotation Yrotation Zrotation
										JOINT ring_02_l
										{
											OFFSET 0.027030 0.001408 -0.004530
											CHANNELS 6 Xposition Yposition Zposition Xrotation Yrotation Zrotation
											JOINT ring_03_l
											{
												OFFSET 0.022190 -0.000874 -0.003490
												CHANNELS 6 Xposition Yposition Zposition Xrotation Yrotation Zrotation
												End Site
												{
													OFFSET 0.023761 0.000552 -0.006767
												}
											}
										}
									}
									JOINT thumb_01_l
									{
										OFFSET 0.031330 -0.025202 -0.003920
										CHANNELS 6 Xposition Yposition Zposition Xrotation Yrotation Zrotation
										JOINT thumb_02_l
										{
											OFFSET 0.009070 -0.015656 -0.021920
											CHANNELS 6 Xposition Yposition Zposition Xrotation Yrotation Zrotation
											JOINT thumb_03_l
											{
												OFFSET 0.032390 -0.002609 -0.004770
												CHANNELS 6 Xposition Yposition Zposition Xrotation Yrotation Zrotation
												End Site
												{
													OFFSET 0.025610 0.005263 -0.001528
												}
											}
										}
									}
								}
							}
						}
					}
					JOINT clavicle_r
					{
						OFFSET -0.022930 -0.009180 0.229520
						CHANNELS 6 Xposition Yposition Zposition Xrotation Yrotation Zrotation
						JOINT upperarm_r
						{
							OFFSET -0.136760 0.000470 0.015660
							CHANNELS 6 Xposition Yposition Zposition Xrotation Yrotation Zrotation
							JOINT lowerarm_r
							{
								OFFSET -0.234220 0.004524 -0.003130
								CHANNELS 6 Xposition Yposition Zposition Xrotation Yrotation Zrotation
								JOINT hand_r
								{
									OFFSET -0.212680 0.006104 0.000160
									CHANNELS 6 Xposition Yposition Zposition Xrotation Yrotation Zrotation
									JOINT index_01_r
									{
										OFFSET -0.092010 -0.031038 0.000300
										CHANNELS 6 Xposition Yposition Zposition Xrotation Yrotation Zrotation
										JOINT index_02_r
										{
											OFFSET -0.023320 0.000571 -0.003240
											CHANNELS 6 Xposition Yposition Zposition Xrotation Yrotation Zrotation
											JOINT index_03_r
											{
												OFFSET -0.020690 0.001655 -0.002990
												CHANNELS 6 Xposition Yposition Zposition Xrotation Yrotation Zrotation
												End Site
												{
													OFFSET -0.024102 0.001808 -0.006983
												}
											}
										}
									}
									JOINT middle_01_r
									{
										OFFSET -0.092160 -0.008797 0.003860
										CHANNELS 6 Xposition Yposition Zposition Xrotation Yrotation Zrotation
										JOINT middle_02_r
										{
											OFFSET -0.030470 0.001014 -0.005920
											CHANNELS 6 Xposition Yposition Zposition Xrotation Yrotation Zrotation
											JOINT middle_03_r
											{
												OFFSET -0.025050 -0.000983 -0.004310
												CHANNELS 6 Xposition Yposition Zposition Xrotation Yrotation Zrotation
												End Site
												{
													OFFSET -0.023820 -0.000054 -0.007531
												}
											}
										}
									}
									JOINT pinky_01_r
									{
										OFFSET -0.082860 0.024648 -0.002420
										CHANNELS 6 Xposition Yposition Zposition Xrotation Yrotation Zrotation
										JOINT pinky_02_r
										{
											OFFSET -0.019290 0.001559 -0.001660
											CHANNELS 6 Xposition Yposition Zposition Xrotation Yrotation Zrotation
											JOINT pinky_03_r
											{
												OFFSET -0.014370 0.000155 -0.000950
												CHANNELS 6 Xposition Yposition Zposition Xrotation Yrotation Zrotation
												End Site
												{
													OFFSET -0.018070 0.000644 -0.001347
												}
											}
										}
									}
									JOINT ring_01_r
									{
										OFFSET -0.088670 0.009084 0.002840
										CHANNELS 6 Xposition Yposition Zposition Xrotation Yrotation Zrotation
										JOINT ring_02_r
										{
											OFFSET -0.027030 0.001408 -0.004530
											CHANNELS 6 Xposition Yposition Zposition Xrotation Yrotation Zrotation
											JOINT ring_03_r
											{
												OFFSET -0.022190 -0.000874 -0.003490
												CHANNELS 6 Xposition Yposition Zposition Xrotation Yrotation Zrotation
												End Site
												{
													OFFSET -0.023761 0.000552 -0.006767
												}
											}
										}
									}
									JOINT thumb_01_r
									{
										OFFSET -0.031330 -0.025202 -0.003920
										CHANNELS 6 Xposition Yposition Zposition Xrotation Yrotation Zrotation
										JOINT thumb_02_r
										{
											OFFSET -0.009060 -0.015656 -0.021930
											CHANNELS 6 Xposition Yposition Zposition Xrotation Yrotation Zrotation
											JOINT thumb_03_r
											{
												OFFSET -0.032390 -0.002610 -0.004760
												CHANNELS 6 Xposition Yposition Zposition Xrotation Yrotation Zrotation
												End Site
												{
													OFFSET -0.025620 0.005263 -0.001532
												}
											}
										}
									}
								}
							}
						}
					}
					JOINT neck_01
					{
						OFFSET 0.000000 0.013340 0.298010
						CHANNELS 6 Xposition Yposition Zposition Xrotation Yrotation Zrotation
						JOINT head
						{
							OFFSET 0.000000 -0.041895 0.111740
							CHANNELS 6 Xposition Yposition Zposition Xrotation Yrotation Zrotation
							End Site
							{
								OFFSET 0.000000 0.005880 0.136520
							}
						}
					}
				}
			}
		}
		JOINT thigh_l
		{
			OFFSET 0.095465 0.006192 -0.011170
			CHANNELS 6 Xposition Yposition Zposition Xrotation Yrotation Zrotation
			JOINT calf_l
			{
				OFFSET 0.013985 -0.030567 -0.374074
				CHANNELS 6 Xposition Yposition Zposition Xrotation Yrotation Zrotation
				JOINT foot_l
				{
					OFFSET 0.004190 0.018160 -0.382000
					CHANNELS 6 Xposition Yposition Zposition Xrotation Yrotation Zrotation
					JOINT ball_l
					{
						OFFSET 0.005410 -0.109393 -0.057980
						CHANNELS 6 Xposition Yposition Zposition Xrotation Yrotation Zrotation
						End Site
						{
							OFFSET -0.004640 -0.061769 0.000970
						}
					}
				}
			}
		}
		JOINT thigh_r
		{
			OFFSET -0.095465 0.006192 -0.011170
			CHANNELS 6 Xposition Yposition Zposition Xrotation Yrotation Zrotation
			JOINT calf_r
			{
				OFFSET -0.013985 -0.030567 -0.374074
				CHANNELS 6 Xposition Yposition Zposition Xrotation Yrotation Zrotation
				JOINT foot_r
				{
					OFFSET -0.004190 0.018160 -0.382000
					CHANNELS 6 Xposition Yposition Zposition Xrotation Yrotation Zrotation
					JOINT ball_r
					{
						OFFSET -0.005410 -0.109393 -0.057980
						CHANNELS 6 Xposition Yposition Zposition Xrotation Yrotation Zrotation
						End Site
						{
							OFFSET 0.004640 -0.061769 0.000970
						}
					}
				}
			}
		}
	}
}
MOTION
Frames: 4
Frame Time: 0.041667
-0.500000 0.500000 -0.815750 -0.000000 0.000000 -0.000000 0.534538 -0.464486 1.539572 5.107042 -0.187548 -2.493623 -0.000000 0.045650 0.072925 -6.780871 3.800795 -1.258721 0.000000 -0.022106 0.063381 -0.000001 -0.000000 0.000000 0.000000 -0.012215 0.091100 1.431908 -1.424806 -0.777961 0.022930 -0.009180 0.229520 0.000003 0.000001 0.000001 0.136760 0.000470 0.015660 70.319598 60.313070 -71.091034 0.234220 0.004524 -0.003130 -3.200359 -7.653284 -14.109083 0.212680 0.006104 0.000160 9.683166 -0.007128 -1.048470 0.092010 -0.031038 0.000300 0.000001 -0.000001 -0.000000 0.023320 0.000571 -0.003240 0.000004 -0.000000 -0.000001 0.020690 0.001655 -0.002990 0.000001 0.000000 -0.000000 0.092160 -0.008797 0.003860 0.000001 -0.000002 -0.000000 0.030470 0.001014 -0.005920 -0.000002 0.000000 -0.000000 0.025050 -0.000982 -0.004310 0.000000 0.000003 0.000003 0.082860 0.024648 -0.002420 -0.000000 -0.000003 -0.000003 0.019290 0.001559 -0.001660 0.000003 0.000000 0.000001 0.014370 0.000155 -0.000950 0.000003 0.000002 0.000003 0.088670 0.009084 0.002840 -0.000000 -0.000003 -0.000000 0.027030 0.001408 -0.004530 -0.000000 0.000002 -0.000001 0.022190 -0.000874 -0.003490 -0.000001 -0.000002 0.000002 0.031330 -0.025202 -0.003920 -0.000001 -0.000001 0.000006 0.009070 -0.015656 -0.021920 0.000005 -0.000001 -0.000003 0.032390 -0.002609 -0.004770 -0.000001 -0.000000 0.000000 -0.022930 -0.009180 0.229520 0.000002 -0.000001 -0.000000 -0.136760 0.000470 0.015660 73.630908 -41.743152 69.953937 -0.234220 0.004524 -0.003130 -6.862221 14.066310 26.776136 -0.212680 0.006104 0.000160 -14.637801 0.631964 -2.055922 -0.092010 -0.031038 0.000300 -0.000005 0.000000 0.000004 -0.023320 0.000571 -0.003240 0.000002 0.000001 0.000001 -0.020690 0.001655 -0.002990 0.000002 0.000003 0.000004 -0.092160 -0.008797 0.003860 -0.000004 0.000000 0.000003 -0.030470 0.001014 -0.005920 0.000001 -0.000003 -0.000001 -0.025050 -0.000983 -0.004310 0.000001 0.000002 -0.000000 -0.082860 0.024648 -0.002420 -0.000003 0.000002 0.000004 -0.019290 0.001559 -0.001660 0.000001 -0.000000 0.000000 -0.014370 0.000155 -0.000950 0.000001 -0.000000 -0.000002 -0.088670 0.009084 0.002840 -0.000005 0.000001 0.000003 -0.027030 0.001408 -0.004530 0.000000 -0.000001 -0.000001 -0.022190 -0.000874 -0.003490 -0.000002 0.000004 -0.000002 -0.031330 -0.025202 -0.003920 -0.000001 -0.000001 0.000003 -0.009060 -0.015656 -0.021930 0.000000 0.000003 0.000001 -0.032390 -0.002610 -0.004760 -0.000000 -0.000001 -0.000002 -0.000000 0.013340 0.298010 -7.019684 10.700093 -0.494700 0.000000 -0.041895 0.111740 11.921101 -13.577492 2.029674 0.095465 0.006192 -0.011170 -18.753736 6.294446 6.229872 0.013985 -0.030567 -0.374074 22.419454 -0.205119 0.122677 0.004190 0.018160 -0.382000 -9.884526 -0.830821 2.438852 0.005410 -0.109393 -0.057980 0.000002 0.000001 -0.000000 -0.095465 0.006192 -0.011170 -35.129869 4.462229 -4.518925 -0.013985 -0.030567 -0.374074 56.812021 0.419459 0.757858 -0.004190 0.018160 -0.382000 5.266492 1.564640 -13.336512 -0.005410 -0.109393 -0.057980 0.000002 0.000001 0.000000 
-0.500000 0.500000 -0.815750 -0.000000 0.000000 -0.000000 0.534538 -0.464486 1.539572 4.871012 -1.394288 0.125522 0.000000 0.045650 0.072925 -6.919243 3.878397 -4.109222 -0.000000 -0.022106 0.063381 -0.000003 -0.000000 0.000000 0.000000 -0.012215 0.091100 1.477044 -2.192640 -1.515392 0.022930 -0.009180 0.229520 0.000002 -0.000000 0.000000 0.136760 0.000470 0.015660 67.770250 50.090470 -74.693446 0.234220 0.004524 -0.003130 -4.457344 -9.794677 -18.437865 0.212680 0.006104 0.000160 2.597337 0.147757 -0.023480 0.092010 -0.031038 0.000300 0.000004 0.000000 0.000004 0.023320 0.000571 -0.003240 0.000001 -0.000001 -0.000000 0.020690 0.001655 -0.002990 -0.000007 -0.000004 -0.000004 0.092160 -0.008797 0.003860 -0.000001 -0.000002 0.000001 0.030470 0.001014 -0.005920 -0.000002 0.000002 0.000002 0.025050 -0.000982 -0.004310 0.000005 -0.000003 0.000003 0.082860 0.024648 -0.002420 0.000001 0.000001 -0.000002 0.019290 0.001559 -0.001660 0.000004 0.000003 0.000003 0.014370 0.000155 -0.000950 0.000001 -0.000003 -0.000002 0.088670 0.009084 0.002840 0.000003 -0.000004 -0.000001 0.027030 0.001408 -0.004530 0.000002 0.000003 0.000002 0.022190 -0.000874 -0.003490 0.000000 -0.000000 0.000001 0.031330 -0.025202 -0.003920 0.000004 0.000003 0.000005 0.009070 -0.015656 -0.021920 0.000004 -0.000001 -0.000001 0.032390 -0.002609 -0.004770 0.000001 -0.000003 -0.000002 -0.022930 -0.009180 0.229520 0.000003 -0.000001 -0.000001 -0.136760 0.000470 0.015660 77.327953 -40.823812 68.807216 -0.234220 0.004524 -0.003130 -7.068524 14.301234 27.339355 -0.212680 0.006104 0.000160 -16.140821 0.627782 -2.269655 -0.092010 -0.031038 0.000300 0.000004 0.000001 0.000002 -0.023320 0.000571 -0.003240 0.000005 -0.000002 -0.000004 -0.020690 0.001655 -0.002990 0.000005 0.000002 0.000001 -0.092160 -0.008797 0.003860 0.000005 0.000001 -0.000002 -0.030470 0.001014 -0.005920 0.000000 -0.000001 -0.000001 -0.025050 -0.000983 -0.004310 -0.000000 0.000002 0.000000 -0.082860 0.024648 -0.002420 0.000005 0.000001 0.000000 -0.019290 0.001559 -0.001660 0.000001 -0.000003 -0.000001 -0.014370 0.000155 -0.000950 -0.000001 0.000001 -0.000000 -0.088670 0.009084 0.002840 0.000004 0.000001 0.000000 -0.027030 0.001408 -0.004530 0.000003 -0.000001 -0.000000 -0.022190 -0.000874 -0.003490 -0.000000 0.000001 0.000001 -0.031330 -0.025202 -0.003920 0.000003 0.000001 0.000001 -0.009060 -0.015656 -0.021930 0.000005 0.000001 -0.000001 -0.032390 -0.002610 -0.004760 -0.000002 0.000000 -0.000002 0.000000 0.013340 0.298010 -6.556304 10.765639 -0.307354 -0.000000 -0.041895 0.111740 12.550584 -13.401235 2.601470 0.095465 0.006192 -0.011170 -14.251644 6.966389 4.594307 0.013985 -0.030567 -0.374074 21.922674 -0.172123 -0.175921 0.004190 0.018160 -0.382000 -12.683386 -0.623125 1.245871 0.005410 -0.109393 -0.057980 0.000001 0.000000 -0.000001 -0.095465 0.006192 -0.011170 -38.277377 4.803495 -5.749574 -0.013985 -0.030567 -0.374074 52.415739 0.298218 0.925621 -0.004190 0.018160 -0.382000 -0.629710 1.986175 -9.724797 -0.005410 -0.109393 -0.057980 0.000004 0.000001 -0.000001 
-0.500000 0.500000 -0.815750 -0.000000 0.000000 -0.000000 0.534538 -0.464486 1.539572 4.765305 -1.554129 1.803518 0.000000 0.045650 0.072925 -7.064560 4.795056 -5.488708 0.000000 -0.022106 0.063381 -0.000003 -0.000000 -0.000000 -0.000000 -0.012215 0.091100 1.513737 -3.430487 -1.896633 0.022930 -0.009180 0.229520 0.000003 0.000001 -0.000000 0.136760 0.000470 0.015660 63.139437 40.454398 -75.832175 0.234220 0.004524 -0.003130 -5.916976 -11.940557 -23.077567 0.212680 0.006104 0.000160 -3.469518 0.074345 0.807523 0.092010 -0.031038 0.000300 0.000004 0.000001 -0.000002 0.023320 0.000571 -0.003240 0.000003 -0.000002 -0.000003 0.020690 0.001655 -0.002990 0.000000 -0.000000 0.000001 0.092160 -0.008797 0.003860 0.000005 0.000004 -0.000000 0.030470 0.001014 -0.005920 -0.000001 0.000000 0.000001 0.025050 -0.000982 -0.004310 -0.000001 -0.000001 0.000003 0.082860 0.024648 -0.002420 0.000000 0.000000 -0.000000 0.019290 0.001559 -0.001660 -0.000004 -0.000002 -0.000001 0.014370 0.000155 -0.000950 0.000001 0.000002 0.000002 0.088670 0.009084 0.002840 0.000002 0.000001 0.000002 0.027030 0.001408 -0.004530 -0.000000 -0.000002 -0.000005 0.022190 -0.000874 -0.003490 0.000002 -0.000000 -0.000001 0.031330 -0.025202 -0.003920 0.000001 0.000003 0.000003 0.009070 -0.015657 -0.021920 0.000006 -0.000002 -0.000002 0.032390 -0.002609 -0.004770 -0.000001 -0.000003 -0.000002 -0.022930 -0.009180 0.229520 0.000002 0.000000 -0.000001 -0.136760 0.000470 0.015660 81.379286 -41.351519 67.875305 -0.234220 0.004524 -0.003130 -7.335026 14.645095 28.154583 -0.212680 0.006104 0.000160 -17.243991 0.692186 -2.440332 -0.092010 -0.031038 0.000300 0.000001 -0.000001 -0.000001 -0.023320 0.000571 -0.003240 0.000004 -0.000000 -0.000001 -0.020690 0.001655 -0.002990 0.000007 0.000000 0.000001 -0.092160 -0.008797 0.003860 -0.000002 -0.000001 -0.000002 -0.030470 0.001014 -0.005920 -0.000001 -0.000001 0.000003 -0.025050 -0.000983 -0.004310 0.000000 0.000001 0.000004 -0.082860 0.024648 -0.002420 -0.000001 -0.000001 -0.000003 -0.019290 0.001559 -0.001660 -0.000000 0.000001 -0.000001 -0.014370 0.000155 -0.000950 -0.000002 0.000001 0.000001 -0.088670 0.009084 0.002840 0.000000 -0.000000 -0.000000 -0.027030 0.001408 -0.004530 0.000000 -0.000001 -0.000001 -0.022190 -0.000874 -0.003490 -0.000003 0.000002 -0.000001 -0.031330 -0.025202 -0.003920 -0.000001 -0.000003 0.000001 -0.009060 -0.015656 -0.021930 0.000000 0.000002 0.000002 -0.032390 -0.002610 -0.004760 -0.000002 -0.000001 -0.000001 -0.000000 0.013340 0.298010 -6.524754 10.946433 -0.338125 -0.000000 -0.041895 0.111740 12.704552 -13.892288 2.596309 0.095465 0.006192 -0.011170 -8.998354 7.135409 3.251926 0.013985 -0.030567 -0.374074 19.100433 -0.158852 -0.287627 0.004190 0.018160 -0.382000 -14.132240 -0.358330 0.174755 0.005410 -0.109393 -0.057980 -0.000000 0.000000 -0.000000 -0.095465 0.006192 -0.011170 -39.603616 3.623657 -4.223318 -0.013985 -0.030567 -0.374074 43.756535 0.148920 0.877197 -0.004190 0.018160 -0.382000 -5.354247 1.752529 -6.214323 -0.005410 -0.109393 -0.057980 0.000002 0.000000 -0.000002 
-0.500000 0.500000 -0.815750 -0.000000 0.000000 -0.000000 0.534538 -0.464486 1.539572 5.894661 -2.261672 3.906537 -0.000000 0.045650 0.072925 -8.233939 5.891950 -7.081098 -0.000000 -0.022106 0.063381 -0.000003 0.000000 0.000000 0.000000 -0.012215 0.091100 1.868685 -4.168514 -2.271461 0.022930 -0.009180 0.229520 0.000003 -0.000000 -0.000000 0.136760 0.000470 0.015660 56.968753 35.626062 -75.656653 0.234220 0.004524 -0.003130 -7.040800 -13.369807 -26.369375 0.212680 0.006104 0.000160 -6.349063 0.033306 1.213031 0.092010 -0.031038 0.000300 0.000002 0.000000 0.000003 0.023320 0.000571 -0.003240 0.000003 -0.000001 -0.000003 0.020690 0.001655 -0.002990 0.000002 -0.000003 -0.000003 0.092160 -0.008797 0.003860 0.000001 -0.000001 0.000002 0.030470 0.001014 -0.005920 -0.000002 0.000001 0.000002 0.025050 -0.000982 -0.004310 0.000000 0.000003 0.000002 0.082860 0.024648 -0.002420 0.000001 -0.000000 0.000004 0.019290 0.001559 -0.001660 0.000008 0.000000 0.000001 0.014370 0.000155 -0.000950 0.000005 0.000000 0.000003 0.088670 0.009084 0.002840 -0.000000 -0.000001 0.000004 0.027030 0.001408 -0.004530 -0.000002 -0.000001 -0.000003 0.022190 -0.000874 -0.003490 0.000000 0.000001 -0.000001 0.031330 -0.025202 -0.003920 -0.000003 0.000005 0.000008 0.009070 -0.015656 -0.021920 -0.000003 0.000000 0.000001 0.032390 -0.002609 -0.004770 0.000002 -0.000002 -0.000001 -0.022930 -0.009180 0.229520 0.000003 -0.000000 -0.000001 -0.136760 0.000470 0.015660 85.401789 -42.106050 67.189390 -0.234220 0.004524 -0.003130 -7.475054 14.739296 28.416017 -0.212680 0.006104 0.000160 -17.883102 0.760210 -2.483734 -0.092010 -0.031038 0.000300 0.000001 0.000001 0.000001 -0.023320 0.000571 -0.003240 0.000005 -0.000001 -0.000002 -0.020690 0.001655 -0.002990 0.000002 -0.000000 -0.000000 -0.092160 -0.008797 0.003860 0.000001 -0.000000 0.000000 -0.030470 0.001014 -0.005920 0.000000 -0.000002 0.000001 -0.025050 -0.000983 -0.004310 0.000001 -0.000001 0.000001 -0.082860 0.024648 -0.002420 0.000001 0.000001 -0.000002 -0.019290 0.001559 -0.001660 -0.000000 -0.000001 -0.000001 -0.014370 0.000155 -0.000950 -0.000000 -0.000001 0.000000 -0.088670 0.009084 0.002840 -0.000000 0.000001 0.000001 -0.027030 0.001408 -0.004530 0.000000 -0.000001 0.000001 -0.022190 -0.000874 -0.003490 -0.000000 0.000000 0.000000 -0.031330 -0.025202 -0.003920 -0.000001 -0.000003 -0.000003 -0.009060 -0.015656 -0.021930 0.000004 0.000001 0.000001 -0.032390 -0.002610 -0.004760 -0.000003 -0.000001 -0.000001 0.000000 0.013340 0.298010 -6.634033 10.648256 -0.285213 -0.000000 -0.041895 0.111740 12.558340 -14.005924 2.627073 0.095465 0.006192 -0.011170 -2.801932 7.129345 2.740276 0.013985 -0.030567 -0.374074 12.208388 -0.207960 -0.203087 0.004190 0.018160 -0.382000 -13.087669 0.351689 -2.004672 0.005410 -0.109393 -0.057980 0.000002 0.000001 -0.000000 -0.095465 0.006192 -0.011171 -40.306135 2.446789 0.706323 -0.013985 -0.030567 -0.374074 31.862235 0.050577 0.822204 -0.004190 0.018160 -0.382000 -10.027751 2.458998 -7.299319 -0.005410 -0.109393 -0.057980 -0.000000 0.000000 -0.000001 
